<svg width="2687" xmlns="http://www.w3.org/2000/svg" height="2687" id="screenshot-3853092e-3426-80cd-8006-b5378e9feab8" viewBox="0 0 2687 2687" xmlns:xlink="http://www.w3.org/1999/xlink" fill="none" version="1.1"><g id="shape-3853092e-3426-80cd-8006-b5378e9feab8"><defs><clipPath id="frame-clip-3853092e-3426-80cd-8006-b5378e9feab8-render-1" class="frame-clip frame-clip-def"><rect rx="1343.5" ry="1343.5" x="0" y="0" width="2687" height="2687.0000000000005" transform="matrix(1.000000, 0.000000, 0.000000, 1.000000, 0.000000, 0.000000)"/></clipPath></defs><g class="frame-container-wrapper"><g class="frame-container-blur"><g class="frame-container-shadows"><g clip-path="url(#frame-clip-3853092e-3426-80cd-8006-b5378e9feab8-render-1)" fill="none"><g class="fills" id="fills-3853092e-3426-80cd-8006-b5378e9feab8"><rect width="2687" height="2687.0000000000005" class="frame-background" x="0" transform="matrix(1.000000, 0.000000, 0.000000, 1.000000, 0.000000, 0.000000)" style="fill: rgb(34, 34, 34); fill-opacity: 1;" ry="1343.5" rx="1343.5" y="0"/></g><g class="frame-children"><g id="shape-3853092e-3426-80cd-8006-b534404f0356" rx="0" ry="0"><g id="shape-3853092e-3426-80cd-8006-b534404f0357"><defs><filter id="filter-render-3" x="-0.32541182822330333" y="-0.336403088071534" width="1.6602105361068942" height="1.6825101113759007" filterUnits="objectBoundingBox" color-interpolation-filters="sRGB"><feFlood flood-opacity="0" result="BackgroundImageFix"/><feColorMatrix in="SourceAlpha" type="matrix" values="0 0 0 0 0 0 0 0 0 0 0 0 0 0 0 0 0 0 127 0"/><feOffset dx="4" dy="4"/><feGaussianBlur stdDeviation="4"/><feColorMatrix type="matrix" values="0 0 0 0 0 0 0 0 0 0 0 0 0 0 0 0 0 0 0.2 0"/><feBlend mode="normal" in2="BackgroundImageFix" result="filter_3853092e-3426-80cd-8006-b529449d4e03"/><feBlend mode="normal" in="SourceGraphic" in2="filter_3853092e-3426-80cd-8006-b529449d4e03" result="shape"/></filter><filter id="filter-shadow-render-3" x="-0.32541182822330333" y="-0.336403088071534" width="1.6602105361068942" height="1.6825101113759007" filterUnits="objectBoundingBox" color-interpolation-filters="sRGB"><feFlood flood-opacity="0" result="BackgroundImageFix"/><feColorMatrix in="SourceAlpha" type="matrix" values="0 0 0 0 0 0 0 0 0 0 0 0 0 0 0 0 0 0 127 0"/><feOffset dx="4" dy="4"/><feGaussianBlur stdDeviation="4"/><feColorMatrix type="matrix" values="0 0 0 0 0 0 0 0 0 0 0 0 0 0 0 0 0 0 0.2 0"/><feBlend mode="normal" in2="BackgroundImageFix" result="filter_3853092e-3426-80cd-8006-b529449d4e03"/><feBlend mode="normal" in="SourceGraphic" in2="filter_3853092e-3426-80cd-8006-b529449d4e03" result="shape"/></filter></defs><g class="fills" id="fills-3853092e-3426-80cd-8006-b534404f0357"><path d="M630.644775390625,1587.7789306640625C630.644775390625,1587.7789306640625,733.551513671875,1910.355224609375,839.611328125,1784.8280029296875C945.671142578125,1659.301025390625,1088.6181640625,814.7877807617188,1088.6181640625,814.7877807617188C1088.6181640625,814.7877807617188,1142.43603515625,639.9979248046875,1208.261962890625,823.7421875C1274.089111328125,1007.486328125,1504.90576171875,1934.3980712890625,1504.90576171875,1934.3980712890625C1504.90576171875,1934.3980712890625,1573.816650390625,2171.5,1618.380615234375,1836.63720703125C1662.946044921875,1501.7750244140625,1663.60302734375,1211.5703125,1793.4873046875,945.2913208007812C1923.3720703125,679.011962890625,2037.107666015625,937.6098022460938,2032.776123046875,963.20068359375" filter="url(#filter-render-3)"/></g><g id="strokes-4fff7163-12f9-80e5-8006-b60402eefadb-3853092e-3426-80cd-8006-b534404f0357" class="strokes" filter="url(#filter-render-3)"><g class="stroke-shape"><path d="M630.644775390625,1587.7789306640625C630.644775390625,1587.7789306640625,733.551513671875,1910.355224609375,839.611328125,1784.8280029296875C945.671142578125,1659.301025390625,1088.6181640625,814.7877807617188,1088.6181640625,814.7877807617188C1088.6181640625,814.7877807617188,1142.43603515625,639.9979248046875,1208.261962890625,823.7421875C1274.089111328125,1007.486328125,1504.90576171875,1934.3980712890625,1504.90576171875,1934.3980712890625C1504.90576171875,1934.3980712890625,1573.816650390625,2171.5,1618.380615234375,1836.63720703125C1662.946044921875,1501.7750244140625,1663.60302734375,1211.5703125,1793.4873046875,945.2913208007812C1923.3720703125,679.011962890625,2037.107666015625,937.6098022460938,2032.776123046875,963.20068359375" style="fill: none; stroke-width: 156; stroke: rgb(252, 252, 252); stroke-opacity: 1; stroke-linecap: round;"/></g></g></g><g id="shape-3853092e-3426-80cd-8006-b534404f0358"><g class="fills" id="fills-3853092e-3426-80cd-8006-b534404f0358"><path d="M678.609375,1472.2017822265625C678.609375,1472.2017822265625,1079.952392578125,911.0142211914062,1979.2109375,1198.88134765625"/></g><g id="strokes-4fff7163-12f9-80e5-8006-b60402ef0ed7-3853092e-3426-80cd-8006-b534404f0358" class="strokes"><g class="stroke-shape"><defs><linearGradient id="stroke-color-gradient-render-4-0" x1="0" y1="0.5000000000000001" x2="1" y2="0.4999999999999999" gradientTransform="matrix(0.984941, -0.172891, 0.174409, 0.984673, -0.079675, 0.094109)"><stop offset="0" stop-color="#85e8d2" stop-opacity="0"/><stop offset="0.09" stop-color="#7dcad0" stop-opacity="0.38333333333333336"/><stop offset="0.51" stop-color="#75adcf" stop-opacity="1"/><stop offset="1" stop-color="#c587ee" stop-opacity="1"/></linearGradient></defs><path d="M678.609375,1472.2017822265625C678.609375,1472.2017822265625,1079.952392578125,911.0142211914062,1979.2109375,1198.88134765625" style="fill: none; stroke-width: 100; stroke: url(&quot;#stroke-color-gradient-render-4-0&quot;);"/></g></g></g><g id="shape-3853092e-3426-80cd-8006-b534404f0359"><g class="fills" id="fills-3853092e-3426-80cd-8006-b534404f0359"><path d="M1264.316162109375,1008.4385986328125L1327.70263671875,1245.3505859375"/></g><g id="strokes-4fff7163-12f9-80e5-8006-b60402ef441e-3853092e-3426-80cd-8006-b534404f0359" class="strokes"><g class="stroke-shape"><path d="M1264.316162109375,1008.4385986328125L1327.70263671875,1245.3505859375" style="fill: none; stroke-width: 156; stroke: rgb(252, 252, 252); stroke-opacity: 1;"/></g></g></g><g id="shape-3853092e-3426-80cd-8006-b534404f035a"><g class="fills" id="fills-3853092e-3426-80cd-8006-b534404f035a"><path d="M1899.22900390625,1185.21484375L1908.4833984375,1164.43798828125L1903.690185546875,1105.2049560546875L1917.107177734375,1095.83349609375L1933.430908203125,1094.417724609375L1967.964111328125,1142.8631591796875L1988.454345703125,1152.85205078125L2046.12060546875,1149.3555908203125L2059.171630859375,1162.0413818359375L2057.357177734375,1180.1207275390625L2010.926513671875,1214.3817138671875L2001.674072265625,1235.1585693359375L2006.466552734375,1294.3912353515625L1994.405029296875,1307.4765625L1976.725830078125,1305.1795654296875L1942.191162109375,1256.734130859375L1921.701904296875,1246.7459716796875L1864.036865234375,1250.2410888671875L1850.9833984375,1237.554931640625L1852.800048828125,1219.4757080078125L1899.22900390625,1185.21484375" style="fill: rgb(232, 177, 48); fill-opacity: 1;"/></g></g></g></g></g></g><g id="strokes-4fff7163-12f9-80e5-8006-b60402ef4420-3853092e-3426-80cd-8006-b5378e9feab8" class="strokes"><g class="inner-stroke-shape" transform="matrix(1.000000, 0.000000, 0.000000, 1.000000, 0.000000, 0.000000)"><defs><linearGradient id="stroke-color-gradient-render-1-0" x1="0" y1="0.5000000000000001" x2="1" y2="0.4999999999999999" gradientTransform=""><stop offset="0" stop-color="#85e8d2" stop-opacity="1"/><stop offset="0.51" stop-color="#75adcf" stop-opacity="1"/><stop offset="1" stop-color="#c587ee" stop-opacity="1"/></linearGradient><clipPath id="inner-stroke-render-1-3853092e-3426-80cd-8006-b5378e9feab8-0"><use href="#stroke-shape-render-1-3853092e-3426-80cd-8006-b5378e9feab8-0"/></clipPath><rect width="2687" height="2687.0000000000005" class="frame-background" x="0" id="stroke-shape-render-1-3853092e-3426-80cd-8006-b5378e9feab8-0" style="fill: none; stroke-width: 240; stroke: url(&quot;#stroke-color-gradient-render-1-0&quot;);" ry="1343.5" rx="1343.5" y="0"/></defs><use href="#stroke-shape-render-1-3853092e-3426-80cd-8006-b5378e9feab8-0" clip-path="url('#inner-stroke-render-1-3853092e-3426-80cd-8006-b5378e9feab8-0')"/></g></g></g></g></g></svg>