<svg width="2687" xmlns="http://www.w3.org/2000/svg" height="2687" id="screenshot-3853092e-3426-80cd-8006-b5378e9feab8" viewBox="0 0 2687 2687" xmlns:xlink="http://www.w3.org/1999/xlink" fill="none" version="1.1"><g id="shape-3853092e-3426-80cd-8006-b5378e9feab8"><defs><clipPath id="frame-clip-3853092e-3426-80cd-8006-b5378e9feab8-render-1" class="frame-clip frame-clip-def"><rect rx="1343.5" ry="1343.5" x="0" y="0" width="2687" height="2687.0000000000005" transform="matrix(1.000000, 0.000000, 0.000000, 1.000000, 0.000000, 0.000000)"/></clipPath></defs><g class="frame-container-wrapper"><g class="frame-container-blur"><g class="frame-container-shadows"><g clip-path="url(#frame-clip-3853092e-3426-80cd-8006-b5378e9feab8-render-1)" fill="none"><g class="fills" id="fills-3853092e-3426-80cd-8006-b5378e9feab8"><rect width="2687" height="2687.0000000000005" class="frame-background" x="0" transform="matrix(1.000000, 0.000000, 0.000000, 1.000000, 0.000000, 0.000000)" style="fill: rgb(255, 255, 255); fill-opacity: 1;" ry="1343.5" rx="1343.5" y="0"/></g><g class="frame-children"><g id="shape-3853092e-3426-80cd-8006-b534404f0356" rx="0" ry="0"><g id="shape-3853092e-3426-80cd-8006-b534404f0357"><defs><filter id="filter-render-3" x="-0.24849902765643983" y="-0.2569459576335439" width="1.5041662964952769" height="1.5213038178911322" filterUnits="objectBoundingBox" color-interpolation-filters="sRGB"><feFlood flood-opacity="0" result="BackgroundImageFix"/><feColorMatrix in="SourceAlpha" type="matrix" values="0 0 0 0 0 0 0 0 0 0 0 0 0 0 0 0 0 0 127 0"/><feOffset dx="4" dy="4"/><feGaussianBlur stdDeviation="4"/><feColorMatrix type="matrix" values="0 0 0 0 0 0 0 0 0 0 0 0 0 0 0 0 0 0 0.2 0"/><feBlend mode="normal" in2="BackgroundImageFix" result="filter_3853092e-3426-80cd-8006-b529449d4e03"/><feBlend mode="normal" in="SourceGraphic" in2="filter_3853092e-3426-80cd-8006-b529449d4e03" result="shape"/></filter><filter id="filter-shadow-render-3" x="-0.24849902765643983" y="-0.2569459576335439" width="1.5041662964952769" height="1.5213038178911322" filterUnits="objectBoundingBox" color-interpolation-filters="sRGB"><feFlood flood-opacity="0" result="BackgroundImageFix"/><feColorMatrix in="SourceAlpha" type="matrix" values="0 0 0 0 0 0 0 0 0 0 0 0 0 0 0 0 0 0 127 0"/><feOffset dx="4" dy="4"/><feGaussianBlur stdDeviation="4"/><feColorMatrix type="matrix" values="0 0 0 0 0 0 0 0 0 0 0 0 0 0 0 0 0 0 0.2 0"/><feBlend mode="normal" in2="BackgroundImageFix" result="filter_3853092e-3426-80cd-8006-b529449d4e03"/><feBlend mode="normal" in="SourceGraphic" in2="filter_3853092e-3426-80cd-8006-b529449d4e03" result="shape"/></filter></defs><g class="fills" id="fills-3853092e-3426-80cd-8006-b534404f0357"><path d="M410.00244140625,1663.3170166015625C410.00244140625,1663.3170166015625,544.7607421875,2085.64306640625,683.648193359375,1921.29931640625C822.535400390625,1756.9556884765625,1009.727294921875,651.2947998046875,1009.727294921875,651.2947998046875C1009.727294921875,651.2947998046875,1080.202880859375,422.4549560546875,1166.4033203125,663.0181884765625C1252.60498046875,903.581298828125,1554.86376953125,2117.12060546875,1554.86376953125,2117.12060546875C1554.86376953125,2117.12060546875,1645.10400390625,2427.541259765625,1703.46142578125,1989.12939453125C1761.82080078125,1550.71826171875,1762.68115234375,1170.77392578125,1932.76708984375,822.15380859375C2102.853515625,473.533203125,2251.79248046875,812.096923828125,2246.1201171875,845.601318359375" filter="url(#filter-render-3)"/></g><g id="strokes-87ef322a-1324-8037-8006-b537be4ae308-3853092e-3426-80cd-8006-b534404f0357" class="strokes" filter="url(#filter-render-3)"><g class="stroke-shape"><path d="M410.00244140625,1663.3170166015625C410.00244140625,1663.3170166015625,544.7607421875,2085.64306640625,683.648193359375,1921.29931640625C822.535400390625,1756.9556884765625,1009.727294921875,651.2947998046875,1009.727294921875,651.2947998046875C1009.727294921875,651.2947998046875,1080.202880859375,422.4549560546875,1166.4033203125,663.0181884765625C1252.60498046875,903.581298828125,1554.86376953125,2117.12060546875,1554.86376953125,2117.12060546875C1554.86376953125,2117.12060546875,1645.10400390625,2427.541259765625,1703.46142578125,1989.12939453125C1761.82080078125,1550.71826171875,1762.68115234375,1170.77392578125,1932.76708984375,822.15380859375C2102.853515625,473.533203125,2251.79248046875,812.096923828125,2246.1201171875,845.601318359375" style="fill: none; stroke-width: 156; stroke: rgb(34, 34, 34); stroke-opacity: 1; stroke-linecap: round;"/></g></g></g><g id="shape-3853092e-3426-80cd-8006-b534404f0358"><g class="fills" id="fills-3853092e-3426-80cd-8006-b534404f0358"><path d="M472.81298828125,1512C472.81298828125,1512,998.37939453125,777.2772216796875,2175.9755859375,1154.1611328125"/></g><g id="strokes-87ef322a-1324-8037-8006-b537be4b07b0-3853092e-3426-80cd-8006-b534404f0358" class="strokes"><g class="stroke-shape"><defs><linearGradient id="stroke-color-gradient-render-4-0" x1="0" y1="0.5000000000000001" x2="1" y2="0.4999999999999999" gradientTransform="matrix(0.984948, -0.172854, 0.174446, 0.984667, -0.079697, 0.094093)"><stop offset="0" stop-color="#85e8d2" stop-opacity="1"/><stop offset="0.51" stop-color="#75adcf" stop-opacity="1"/><stop offset="1" stop-color="#c587ee" stop-opacity="1"/></linearGradient></defs><path d="M472.81298828125,1512C472.81298828125,1512,998.37939453125,777.2772216796875,2175.9755859375,1154.1611328125" style="fill: none; stroke-width: 100; stroke: url(&quot;#stroke-color-gradient-render-4-0&quot;);"/></g></g></g><g id="shape-3853092e-3426-80cd-8006-b534404f0359"><g class="fills" id="fills-3853092e-3426-80cd-8006-b534404f0359"><path d="M1239.80712890625,904.8280029296875L1322.81298828125,1215"/></g><g id="strokes-87ef322a-1324-8037-8006-b537be4b6354-3853092e-3426-80cd-8006-b534404f0359" class="strokes"><g class="stroke-shape"><path d="M1239.80712890625,904.8280029296875L1322.81298828125,1215" style="fill: none; stroke-width: 156; stroke: rgb(34, 34, 34); stroke-opacity: 1;"/></g></g></g><g id="shape-3853092e-3426-80cd-8006-b534404f035a"><g class="fills" id="fills-3853092e-3426-80cd-8006-b534404f035a"><path d="M2071.23779296875,1136.2685546875L2083.3564453125,1109.06689453125L2077.07958984375,1031.517333984375L2094.6494140625,1019.2479248046875L2116.02587890625,1017.394287109375L2161.24755859375,1080.820556640625L2188.080078125,1093.898193359375L2263.59521484375,1089.320556640625L2280.685546875,1105.92919921875L2278.3095703125,1129.59912109375L2217.5078125,1174.45458984375L2205.3916015625,1201.65625L2211.66748046875,1279.205322265625L2195.87255859375,1296.3370361328125L2172.72119140625,1293.329833984375L2127.49755859375,1229.903564453125L2100.66650390625,1216.826904296875L2025.15283203125,1221.4027099609375L2008.05908203125,1204.793701171875L2010.43798828125,1181.123779296875L2071.23779296875,1136.2685546875" style="fill: rgb(232, 177, 48); fill-opacity: 1;"/></g></g></g></g></g></g></g></g></g></svg>